<svg xmlns="http://www.w3.org/2000/svg" xmlns:xlink="http://www.w3.org/1999/xlink" viewBox="0,0,256,256" width="80px" height="80px" fill-rule="nonzero"><g fill="#007bff" fill-rule="nonzero" stroke="none" stroke-width="1" stroke-linecap="butt" stroke-linejoin="miter" stroke-miterlimit="10" stroke-dasharray="" stroke-dashoffset="0" font-family="none" font-weight="none" font-size="none" text-anchor="none" style="mix-blend-mode: normal"><g transform="scale(3.2,3.2)"><path d="M40,7c-18.21484,0 -33,14.78516 -33,33c0,18.21484 14.78516,33 33,33c18.21484,0 33,-14.78516 33,-33c0,-18.21484 -14.78516,-33 -33,-33zM40,9c17.13281,0 31,13.86719 31,31c0,17.13281 -13.86719,31 -31,31c-17.13281,0 -31,-13.86719 -31,-31c0,-17.13281 13.86719,-31 31,-31zM40,11c-1.10547,0 -2,0.89453 -2,2c0,1.10547 0.89453,2 2,2c1.10547,0 2,-0.89453 2,-2c0,-1.10547 -0.89453,-2 -2,-2zM33.01953,12.92188c-0.02344,-0.00391 -0.04687,0 -0.06641,0c-0.07031,0.00391 -0.13281,0.01563 -0.19922,0.03125c-0.53516,0.14453 -0.85156,0.69141 -0.70703,1.22656c0.14453,0.53516 0.69141,0.85156 1.22266,0.70703c0.53516,-0.14453 0.85156,-0.69141 0.71094,-1.22656c-0.11719,-0.43359 -0.50781,-0.73437 -0.96094,-0.73828zM46.98047,12.92188c-0.44922,0.00391 -0.83984,0.30859 -0.95703,0.74219c-0.14453,0.53516 0.17188,1.08203 0.70703,1.22656c0.53516,0.14063 1.08203,-0.17578 1.22266,-0.70703c0.07031,-0.25781 0.03516,-0.53125 -0.09766,-0.76172c-0.13281,-0.23047 -0.35156,-0.39844 -0.60547,-0.46875c-0.08984,-0.01953 -0.17969,-0.03125 -0.26953,-0.03125zM26.47656,15.61719c-0.16797,0.00391 -0.33203,0.05078 -0.47656,0.13281c-0.23047,0.13281 -0.39844,0.35156 -0.46875,0.60938c-0.06641,0.25391 -0.03125,0.52734 0.10156,0.75781c0.13281,0.23047 0.35156,0.39844 0.60938,0.46484c0.25391,0.07031 0.52734,0.03516 0.75781,-0.09766c0.47656,-0.27734 0.64063,-0.89062 0.36328,-1.36719c-0.17969,-0.31641 -0.51953,-0.50781 -0.88672,-0.5zM53.45313,15.62109c-0.33984,0.01563 -0.64844,0.20313 -0.82031,0.5c-0.27734,0.47656 -0.10937,1.08594 0.36719,1.36328c0.47656,0.27734 1.08984,0.11328 1.36328,-0.36328c0.13672,-0.23047 0.17188,-0.50391 0.10156,-0.76172c-0.06641,-0.25781 -0.23437,-0.47656 -0.46484,-0.60937c-0.16406,-0.09375 -0.35547,-0.14062 -0.54687,-0.12891zM40,17c-0.55078,0 -1,0.44922 -1,1c0,0.55078 0.44922,1 1,1c0.55078,0 1,-0.44922 1,-1c0,-0.55078 -0.44922,-1 -1,-1zM20.92188,19.90625c-0.26953,0 -0.53125,0.10547 -0.71875,0.29688c-0.39062,0.38672 -0.39062,1.02344 0,1.41016c0.38672,0.39063 1.02344,0.39063 1.41016,0c0.39063,-0.38672 0.39063,-1.02344 0,-1.41016c-0.18359,-0.1875 -0.42969,-0.29297 -0.69141,-0.29687zM59.10547,19.90625c-0.26953,0 -0.53125,0.10547 -0.71875,0.29688c-0.39062,0.38672 -0.39062,1.02344 0,1.41016c0.38672,0.39063 1.02344,0.39063 1.41016,0c0.39063,-0.38672 0.39063,-1.02344 0,-1.41016c-0.18359,-0.1875 -0.42969,-0.29297 -0.69141,-0.29687zM40,21c-0.55078,0 -1,0.44922 -1,1c0,0.55078 0.44922,1 1,1c0.55078,0 1,-0.44922 1,-1c0,-0.55078 -0.44922,-1 -1,-1zM47.19141,21.3125l-6.53906,14.75391c-0.21484,-0.03516 -0.42969,-0.06641 -0.65234,-0.06641c-2.19922,0 -4,1.80078 -4,4c0,2.19922 1.80078,4 4,4c0.73828,0 1.42188,-0.21484 2.01563,-0.56641l8.42188,8.41406l1.41016,-1.41016l-8.41406,-8.42187c0.35156,-0.59375 0.56641,-1.27734 0.56641,-2.01562c0,-1.26172 -0.60547,-2.37891 -1.52734,-3.11328l6.54688,-14.76562zM63.35938,25.5c-0.16797,0.00391 -0.33203,0.05078 -0.48047,0.13281c-0.47656,0.27734 -0.64062,0.88672 -0.36328,1.36719c0.27734,0.47656 0.88672,0.64063 1.36328,0.36328c0.23047,-0.12891 0.39844,-0.34766 0.46875,-0.60547c0.07031,-0.25781 0.03516,-0.53125 -0.09766,-0.75781c-0.18359,-0.31641 -0.52734,-0.50781 -0.89062,-0.5zM16.57031,25.5c-0.33984,0.01563 -0.64844,0.20313 -0.82031,0.5c-0.27734,0.47656 -0.10937,1.08984 0.36719,1.36328c0.47656,0.27734 1.08984,0.11328 1.36719,-0.36328c0.27344,-0.47656 0.10938,-1.08984 -0.36719,-1.36328c-0.16406,-0.09766 -0.35547,-0.14453 -0.54687,-0.13672zM13.91016,32.01563c-0.44922,0 -0.83984,0.30469 -0.95703,0.73828c-0.14453,0.53516 0.17188,1.08203 0.70703,1.22656c0.53516,0.14063 1.08203,-0.17578 1.22656,-0.71094c0.14063,-0.53125 -0.17578,-1.07812 -0.71094,-1.22266c-0.08594,-0.02344 -0.17578,-0.03516 -0.26562,-0.03125zM66.11719,32.01563c-0.10156,-0.00391 -0.19922,0.00391 -0.29687,0.03125c-0.53516,0.14453 -0.85156,0.69141 -0.70703,1.22266c0.14453,0.53516 0.69141,0.85156 1.22656,0.71094c0.53125,-0.14453 0.84766,-0.69141 0.70703,-1.22656c-0.11719,-0.42187 -0.49219,-0.72266 -0.92969,-0.73828zM13,38c-1.10547,0 -2,0.89453 -2,2c0,1.10547 0.89453,2 2,2c1.10547,0 2,-0.89453 2,-2c0,-1.10547 -0.89453,-2 -2,-2zM40,38c1.11719,0 2,0.88281 2,2c0,1.11719 -0.88281,2 -2,2c-1.11719,0 -2,-0.88281 -2,-2c0,-1.11719 0.88281,-2 2,-2zM67,38c-1.10547,0 -2,0.89453 -2,2c0,1.10547 0.89453,2 2,2c1.10547,0 2,-0.89453 2,-2c0,-1.10547 -0.89453,-2 -2,-2zM18,39c-0.55078,0 -1,0.44922 -1,1c0,0.55078 0.44922,1 1,1c0.55078,0 1,-0.44922 1,-1c0,-0.55078 -0.44922,-1 -1,-1zM22,39c-0.55078,0 -1,0.44922 -1,1c0,0.55078 0.44922,1 1,1c0.55078,0 1,-0.44922 1,-1c0,-0.55078 -0.44922,-1 -1,-1zM58,39c-0.55078,0 -1,0.44922 -1,1c0,0.55078 0.44922,1 1,1c0.55078,0 1,-0.44922 1,-1c0,-0.55078 -0.44922,-1 -1,-1zM62,39c-0.55078,0 -1,0.44922 -1,1c0,0.55078 0.44922,1 1,1c0.55078,0 1,-0.44922 1,-1c0,-0.55078 -0.44922,-1 -1,-1zM13.95703,45.98828c-0.10156,-0.00391 -0.19922,0.00781 -0.29687,0.03125c-0.25781,0.07031 -0.47656,0.23828 -0.60937,0.46875c-0.13281,0.23047 -0.16797,0.50391 -0.09766,0.76172c0.14453,0.53125 0.69141,0.84766 1.22266,0.70313c0.53516,-0.14062 0.85156,-0.6875 0.71094,-1.22266c-0.11328,-0.42578 -0.49219,-0.72656 -0.92969,-0.74219zM66.07031,45.98828c-0.44922,0.00781 -0.83984,0.30859 -0.95703,0.74609c-0.14453,0.53125 0.17188,1.07813 0.70703,1.22266c0.53516,0.14453 1.08203,-0.17187 1.22656,-0.70703c0.14063,-0.53516 -0.17578,-1.08203 -0.70703,-1.22266c-0.08984,-0.02734 -0.17969,-0.03906 -0.26953,-0.03906zM16.59375,52.5c-0.16797,0.00391 -0.33203,0.05078 -0.47656,0.13281c-0.47656,0.27734 -0.64453,0.88672 -0.36719,1.36719c0.13281,0.22656 0.35156,0.39453 0.60938,0.46484c0.25391,0.07031 0.52734,0.03516 0.75781,-0.10156c0.23047,-0.12891 0.39844,-0.34766 0.46484,-0.60547c0.07031,-0.25781 0.03516,-0.53125 -0.09766,-0.75781c-0.18359,-0.31641 -0.52734,-0.50781 -0.89062,-0.5zM63.33203,52.5c-0.33984,0.01953 -0.64844,0.20703 -0.81641,0.5c-0.27734,0.48047 -0.11328,1.08984 0.36328,1.36719c0.23047,0.13281 0.50391,0.16797 0.76172,0.10156c0.25781,-0.07031 0.47656,-0.23828 0.60938,-0.46875c0.13281,-0.22656 0.16797,-0.5 0.09766,-0.75781c-0.07031,-0.25781 -0.23828,-0.47656 -0.46875,-0.60547c-0.16406,-0.09766 -0.35547,-0.14453 -0.54687,-0.13672zM40,57c-0.55078,0 -1,0.44922 -1,1c0,0.55078 0.44922,1 1,1c0.55078,0 1,-0.44922 1,-1c0,-0.55078 -0.44922,-1 -1,-1zM20.92188,58.09375c-0.26953,-0.00391 -0.53125,0.10156 -0.71875,0.29297c-0.39062,0.38672 -0.39062,1.02344 0,1.41016c0.38672,0.39063 1.02344,0.39063 1.41016,0c0.39063,-0.38672 0.39063,-1.02344 0,-1.41016c-0.18359,-0.1875 -0.42969,-0.29297 -0.69141,-0.29297zM59.10547,58.09375c-0.26953,-0.00391 -0.53125,0.10156 -0.71875,0.29297c-0.39062,0.38672 -0.39062,1.02344 0,1.41016c0.38672,0.39063 1.02344,0.39063 1.41016,0c0.39063,-0.38672 0.39063,-1.02344 0,-1.41016c-0.18359,-0.1875 -0.42969,-0.29297 -0.69141,-0.29297zM40,61c-0.55078,0 -1,0.44922 -1,1c0,0.55078 0.44922,1 1,1c0.55078,0 1,-0.44922 1,-1c0,-0.55078 -0.44922,-1 -1,-1zM53.47266,62.37891c-0.16406,0.00781 -0.32812,0.05078 -0.47266,0.13672c-0.48047,0.27734 -0.64453,0.88672 -0.36719,1.36328c0.27734,0.48047 0.88672,0.64453 1.36719,0.37109c0.22656,-0.13281 0.39453,-0.35156 0.46484,-0.60937c0.07031,-0.25781 0.03516,-0.53125 -0.10156,-0.76172c-0.17969,-0.31641 -0.52344,-0.50781 -0.89062,-0.5zM26.45313,62.38672c-0.33984,0.01563 -0.64844,0.20313 -0.82031,0.49609c-0.13281,0.23047 -0.16797,0.50391 -0.10156,0.75781c0.07031,0.25781 0.23828,0.47656 0.46875,0.60938c0.47656,0.27734 1.08984,0.10938 1.36328,-0.36719c0.27734,-0.47656 0.11328,-1.08984 -0.36328,-1.36719c-0.16797,-0.09375 -0.35547,-0.14062 -0.54687,-0.12891zM40,65c-1.10547,0 -2,0.89453 -2,2c0,1.10547 0.89453,2 2,2c1.10547,0 2,-0.89453 2,-2c0,-1.10547 -0.89453,-2 -2,-2zM33,65.08203c-0.44531,0.00391 -0.83984,0.30469 -0.95312,0.74219c-0.14453,0.53125 0.17188,1.07813 0.70313,1.22266c0.53516,0.14453 1.08203,-0.17187 1.22656,-0.70703c0.14453,-0.53516 -0.17187,-1.08203 -0.70703,-1.22656c-0.08594,-0.01953 -0.17578,-0.03125 -0.26953,-0.03125zM47.02734,65.08203c-0.10156,-0.00391 -0.20312,0.00781 -0.29687,0.03125c-0.53516,0.14453 -0.85156,0.69141 -0.71094,1.22656c0.14453,0.53516 0.69141,0.85156 1.22656,0.70703c0.53516,-0.14453 0.85156,-0.69141 0.70703,-1.22266c-0.11328,-0.42578 -0.48828,-0.72656 -0.92578,-0.74219z"></path></g></g></svg>